<?xml version="1.0" standalone="no"?><!-- Generator: Adobe Fireworks CS6, Export SVG Extension by Aaron Beall (http://fireworks.abeall.com) . Version: 0.6.1  --><!DOCTYPE svg PUBLIC "-//W3C//DTD SVG 1.1//EN" "http://www.w3.org/Graphics/SVG/1.1/DTD/svg11.dtd"><svg id="Untitled-P%E1gina%201" viewBox="0 0 217 117" style="background-color:#ffffff00" version="1.1"	xmlns="http://www.w3.org/2000/svg" xmlns:xlink="http://www.w3.org/1999/xlink" xml:space="preserve"	x="0px" y="0px" width="217px" height="117px">	<g id="Capa%201">		<g>			<path d="M 71.9733 69.6116 C 71.9733 83.5427 67.4298 95.9663 53.6377 100.3033 C 47.2329 102.3103 36.4431 100.7225 34.0363 90.6288 C 28.5037 67.6836 47.3128 59.8864 72.0592 55.8437 C 72.0592 55.8437 71.9733 60.7137 71.9733 69.6116 ZM 205.3108 56.8293 C 194.4711 45.8785 171.3467 43.5463 155.6372 40.5387 C 139.9165 37.5435 133.2888 31.527 133.2888 25.0382 C 133.2888 22.0294 136.0071 10.1054 158.4577 10.1054 C 180.9131 10.1054 187.1559 18.8264 198.6745 36.1868 L 205.7008 36.1868 L 205.7008 2.2402 L 198.4839 2.2402 C 198.4839 2.2402 190.0897 9.1346 189.9924 9.0393 C 183.5554 6.0268 172.4243 -0.0872 158.064 -0.0872 C 126.0508 -0.0872 113.2726 20.6691 113.2726 36.0878 C 113.2726 49.4686 118.8327 56.0527 131.1373 63.9154 C 143.4221 71.7633 167.9393 74.6744 180.9131 77.201 C 193.8844 79.7052 194.9619 85.7266 194.9619 91.4363 C 194.9619 97.1658 188.8152 107.1495 168.1201 107.1495 C 147.4398 107.1495 130.5506 96.8728 120.5917 75.2569 L 110.1445 75.2569 L 110.1445 90.2887 C 110.1445 97.8447 108.4838 98.5225 105.8577 98.4259 C 103.9043 98.3641 101.0701 97.5554 101.0701 90.1898 L 101.0701 36.8484 C 101.0701 7.9697 78.9959 0.3641 55.1836 0.3641 C 35.6594 0.3641 12.682 8.9714 8.1959 25.3436 C 6.7981 30.4276 8.7691 45.2936 22.3108 45.2936 C 35.4502 45.2936 37.7798 39.6803 38.9072 34.3095 C 39.9651 29.2453 38.5635 25.7505 35.272 20.8806 C 30.887 14.3929 42.312 9.7987 51.0003 9.7987 C 68.7616 9.7987 72.0891 22.5154 72.0891 32.206 L 72.0891 46.1692 C 10.8931 56.54 0.3449 72.1503 0.3449 88.8332 C 0.3449 105.4948 12.9424 116.4666 32.7432 116.4666 C 52.5625 116.4666 60.9541 108.699 73.3599 96.5809 C 76.3759 105.7063 82.8279 116.1735 98.8239 116.1735 C 114.8374 116.1735 121.668 105.3019 122.1577 96.6922 C 124.9968 100.4629 137.866 116.7571 167.3551 116.7571 C 204.7228 116.7571 215.1763 96.9704 216.1542 85.0452 C 217.0923 73.4625 215.8129 67.4412 205.3108 56.8293 Z" fill="#ffffff"/>		</g>	</g></svg>